<svg width="40" height="40" viewBox="0 0 40 40" fill="none" xmlns="http://www.w3.org/2000/svg">
<circle cx="20" cy="20" r="20" fill="#001D29"/>
<g clip-path="url(#clip0_39_318)">
<rect width="20" height="20" transform="translate(10 9.99991)" fill="#001D29"/>
<path d="M20.8335 17.5H24.5835L24.1669 19.1666H20.8335V26.6666H19.1669V19.1666H15.8335V17.5H19.1669V15.94C19.1669 14.4541 19.3219 13.915 19.6119 13.3716C19.896 12.8348 20.335 12.3958 20.8719 12.1116C21.4152 11.8216 21.9544 11.6666 23.4402 11.6666C23.8752 11.6666 24.2569 11.7083 24.5835 11.7916V13.3333H23.4402C22.3369 13.3333 22.001 13.3983 21.6585 13.5816C21.4052 13.7166 21.2169 13.905 21.0819 14.1583C20.8985 14.5008 20.8335 14.8366 20.8335 15.94V17.5Z" fill="white"/>
</g>
<defs>
<clipPath id="clip0_39_318">
<rect width="20" height="20" fill="white" transform="translate(10 9.99991)"/>
</clipPath>
</defs>
</svg>
