<svg width="40" height="40" viewBox="0 0 40 40" fill="none" xmlns="http://www.w3.org/2000/svg">
<circle cx="20" cy="20" r="20" fill="#001D29"/>
<g clip-path="url(#clip0_39_327)">
<rect width="20" height="20" transform="translate(10 9.99991)" fill="#001D29"/>
<path d="M24.4033 15.9964C24.4033 16.2173 24.2242 16.3964 24.0033 16.3964C23.7824 16.3964 23.6033 16.2173 23.6033 15.9964C23.6033 15.7755 23.7824 15.5964 24.0033 15.5964C24.2242 15.5964 24.4033 15.7755 24.4033 15.9964Z" fill="white" stroke="white"/>
<path d="M18.1379 17.2132C18.689 16.845 19.337 16.6484 19.9998 16.6484C20.8887 16.6484 21.7411 17.0015 22.3696 17.63C22.9981 18.2585 23.3512 19.111 23.3512 19.9998C23.3512 20.6627 23.1546 21.3106 22.7864 21.8617C22.4181 22.4129 21.8947 22.8424 21.2823 23.0961C20.6699 23.3497 19.9961 23.4161 19.346 23.2868C18.6959 23.1575 18.0987 22.8383 17.63 22.3696C17.1613 21.9009 16.8421 21.3037 16.7128 20.6536C16.5835 20.0035 16.6499 19.3297 16.9035 18.7173C17.1572 18.1049 17.5868 17.5815 18.1379 17.2132ZM18.3331 22.4942C18.8264 22.8239 19.4065 22.9998 19.9998 22.9998C20.7955 22.9998 21.5585 22.6837 22.1211 22.1211C22.6837 21.5585 22.9998 20.7955 22.9998 19.9998C22.9998 19.4065 22.8239 18.8264 22.4942 18.3331C22.1646 17.8398 21.696 17.4552 21.1479 17.2282C20.5997 17.0011 19.9965 16.9417 19.4145 17.0575C18.8326 17.1732 18.298 17.4589 17.8785 17.8785C17.4589 18.298 17.1732 18.8326 17.0575 19.4145C16.9417 19.9965 17.0011 20.5997 17.2282 21.1479C17.4552 21.696 17.8398 22.1646 18.3331 22.4942Z" fill="white" stroke="white"/>
<path d="M20 13.8513C22.0026 13.8513 22.2399 13.8589 23.0307 13.8951C23.5063 13.9007 23.9774 13.9881 24.4234 14.1533C24.7468 14.2781 25.0405 14.4692 25.2857 14.7144C25.5308 14.9595 25.7219 15.2533 25.8467 15.5767C26.012 16.0227 26.0993 16.4938 26.105 16.9694C26.141 17.7602 26.1487 17.9974 26.1487 20C26.1487 22.0026 26.1411 22.2398 26.105 23.0306C26.0993 23.5062 26.012 23.9773 25.8467 24.4233C25.7219 24.7468 25.5308 25.0405 25.2857 25.2856C25.0405 25.5308 24.7468 25.7219 24.4234 25.8467C23.9774 26.0119 23.5063 26.0993 23.0307 26.1049C22.2399 26.141 22.0028 26.1487 20 26.1487C17.9973 26.1487 17.7602 26.1411 16.9694 26.1049C16.4938 26.0993 16.0227 26.0119 15.5767 25.8467C15.2533 25.7219 14.9596 25.5308 14.7144 25.2856C14.4693 25.0405 14.2782 24.7468 14.1534 24.4233C13.9881 23.9773 13.9008 23.5062 13.8951 23.0306C13.859 22.2398 13.8514 22.0026 13.8514 20C13.8514 17.9974 13.859 17.7602 13.8951 16.9694C13.9008 16.4938 13.9881 16.0227 14.1534 15.5767C14.2782 15.2532 14.4693 14.9595 14.7144 14.7143C14.9596 14.4692 15.2533 14.2781 15.5767 14.1533C16.0227 13.988 16.4938 13.9007 16.9694 13.895C17.7602 13.8589 17.9975 13.8513 20 13.8513V13.8513ZM20 12.4999C17.9632 12.4999 17.7077 12.5086 16.9078 12.5451C16.2857 12.5576 15.6702 12.6754 15.0875 12.8937C14.5893 13.0864 14.1367 13.3811 13.7589 13.7588C13.3812 14.1366 13.0865 14.5891 12.8938 15.0874C12.6755 15.6702 12.5576 16.2858 12.5452 16.908C12.5087 17.7076 12.5 17.9631 12.5 19.9999C12.5 22.0368 12.5087 22.2923 12.5452 23.0922C12.5576 23.7144 12.6755 24.33 12.8938 24.9128C13.0865 25.411 13.3812 25.8636 13.7589 26.2414C14.1367 26.6191 14.5893 26.9138 15.0875 27.1065C15.6703 27.3248 16.2859 27.4427 16.9081 27.4551C17.7077 27.4913 17.9632 27.4999 20 27.4999C22.0369 27.4999 22.2924 27.4913 23.0923 27.4548C23.7145 27.4424 24.3301 27.3245 24.9129 27.1062C25.4111 26.9135 25.8637 26.6188 26.2415 26.241C26.6192 25.8633 26.9139 25.4107 27.1066 24.9124C27.3249 24.3297 27.4428 23.7141 27.4552 23.0919C27.4914 22.2923 27.5 22.0368 27.5 19.9999C27.5 17.9631 27.4914 17.7076 27.4549 16.9077C27.4424 16.2856 27.3246 15.6701 27.1063 15.0874C26.9136 14.5892 26.6189 14.1367 26.2411 13.759C25.8633 13.3813 25.4108 13.0867 24.9125 12.894C24.3298 12.6757 23.7142 12.5578 23.092 12.5454C22.2924 12.5086 22.0369 12.4999 20 12.4999Z" fill="white" stroke="white" stroke-width="0.2"/>
</g>
<defs>
<clipPath id="clip0_39_327">
<rect width="20" height="20" fill="white" transform="translate(10 9.99991)"/>
</clipPath>
</defs>
</svg>
